<svg width="18" height="18" viewBox="0 0 18 18" fill="none" xmlns="http://www.w3.org/2000/svg">
<path d="M1.6665 14.5002C1.6665 13.5277 2.05281 12.5951 2.74045 11.9074C3.42808 11.2198 4.36071 10.8335 5.33317 10.8335H12.6665C13.639 10.8335 14.5716 11.2198 15.2592 11.9074C15.9469 12.5951 16.3332 13.5277 16.3332 14.5002C16.3332 14.9864 16.14 15.4527 15.7962 15.7965C15.4524 16.1403 14.9861 16.3335 14.4998 16.3335H3.49984C3.01361 16.3335 2.54729 16.1403 2.20347 15.7965C1.85966 15.4527 1.6665 14.9864 1.6665 14.5002Z" stroke="#E8E8E8" stroke-width="1.5" stroke-linejoin="round"/>
<path d="M9 7.16675C10.5188 7.16675 11.75 5.93553 11.75 4.41675C11.75 2.89796 10.5188 1.66675 9 1.66675C7.48122 1.66675 6.25 2.89796 6.25 4.41675C6.25 5.93553 7.48122 7.16675 9 7.16675Z" stroke="#E8E8E8" stroke-width="1.5"/>
</svg>
