<svg width="18" height="18" viewBox="0 0 18 18" fill="none" xmlns="http://www.w3.org/2000/svg">
<path fill-rule="evenodd" clip-rule="evenodd" d="M5.33333 4.41667C5.33333 3.44421 5.71964 2.51157 6.40728 1.82394C7.09491 1.13631 8.02754 0.75 9 0.75C9.97246 0.75 10.9051 1.13631 11.5927 1.82394C12.2804 2.51157 12.6667 3.44421 12.6667 4.41667C12.6667 5.38913 12.2804 6.32176 11.5927 7.00939C10.9051 7.69703 9.97246 8.08333 9 8.08333C8.02754 8.08333 7.09491 7.69703 6.40728 7.00939C5.71964 6.32176 5.33333 5.38913 5.33333 4.41667ZM5.33333 9.91667C4.11776 9.91667 2.95197 10.3996 2.09243 11.2591C1.23289 12.1186 0.75 13.2844 0.75 14.5C0.75 15.2293 1.03973 15.9288 1.55546 16.4445C2.07118 16.9603 2.77065 17.25 3.5 17.25H14.5C15.2293 17.25 15.9288 16.9603 16.4445 16.4445C16.9603 15.9288 17.25 15.2293 17.25 14.5C17.25 13.2844 16.7671 12.1186 15.9076 11.2591C15.048 10.3996 13.8822 9.91667 12.6667 9.91667H5.33333Z" fill="white"/>
</svg>
