<svg width="24" height="23" viewBox="0 0 24 23" fill="none" xmlns="http://www.w3.org/2000/svg">
<path d="M14.1835 17.5H12L7.50002 15.02L2.00452 17.041L3.50552 20.013L7.04152 18.5365C10.3499 20.5122 12.3635 21.5 13.0825 21.5C13.8015 21.5 16.774 20.1667 22 17.5" stroke="white" stroke-width="3" stroke-linecap="round" stroke-linejoin="round"/>
<path d="M14.496 12.994V10.659C15.046 10.4305 15.7675 10.0965 16.182 9.68196C16.8113 9.05262 17.2399 8.2508 17.4135 7.37789C17.5872 6.50497 17.4981 5.60018 17.1575 4.77791C16.8169 3.95565 16.2401 3.25285 15.5001 2.75838C14.76 2.26392 13.89 2 13 2C12.11 2 11.24 2.26392 10.4999 2.75838C9.75992 3.25285 9.18315 3.95565 8.84255 4.77791C8.50195 5.60018 8.41284 6.50497 8.58646 7.37789C8.76009 8.2508 9.18867 9.05262 9.818 9.68196C10.2325 10.0965 10.95 10.4305 11.5 10.6585C11.503 10.8261 11.503 11.6045 11.5 12.9935L14.496 12.994Z" stroke="white" stroke-width="3" stroke-linejoin="round"/>
<path d="M6 10L6.5 9.5M20 10L19.5 9.5M7.5 2L7 1.5M18.5 2L19 1.5M20.5 5.5H20M6 5.5H5.5" stroke="white" stroke-width="2.5" stroke-linecap="round"/>
</svg>
