<svg width="22" height="22" viewBox="0 0 22 22" fill="none" xmlns="http://www.w3.org/2000/svg">
<g clip-path="url(#clip0_285_5039)">
<path d="M22 0H0V22H22V0Z" fill="#171717"/>
<path d="M11.0305 11.0001C11.0305 9.6501 12.1249 8.55566 13.475 8.55566C14.825 8.55566 15.9194 9.6501 15.9194 11.0001C15.9194 12.3502 14.825 13.4446 13.475 13.4446C12.1249 13.4446 11.0305 12.3502 11.0305 11.0001Z" fill="#1ABCFE"/>
<path d="M6.1416 15.8888C6.1416 14.5388 7.23602 13.4443 8.58605 13.4443H11.0305V15.8888C11.0305 17.2388 9.93609 18.3332 8.58605 18.3332C7.23602 18.3332 6.1416 17.2388 6.1416 15.8888Z" fill="#0ACF83"/>
<path d="M11.0305 3.66675V8.55562H13.475C14.825 8.55562 15.9194 7.46122 15.9194 6.11119C15.9194 4.76116 14.825 3.66675 13.475 3.66675H11.0305Z" fill="#FF7262"/>
<path d="M6.1416 6.11119C6.1416 7.46122 7.23602 8.55563 8.58605 8.55563H11.0305V3.66675H8.58605C7.23602 3.66675 6.1416 4.76116 6.1416 6.11119Z" fill="#F24E1E"/>
<path d="M6.1416 11.0001C6.1416 12.3502 7.23602 13.4446 8.58605 13.4446H11.0305V8.55566H8.58605C7.23602 8.55566 6.1416 9.6501 6.1416 11.0001Z" fill="#A259FF"/>
</g>
<rect x="0.5" y="0.5" width="21" height="21" rx="3.5" stroke="black" stroke-opacity="0.1"/>
<defs>
<clipPath id="clip0_285_5039">
<rect width="22" height="22" rx="4" fill="white"/>
</clipPath>
</defs>
</svg>
