<svg width="14" height="15" viewBox="0 0 14 15" fill="none" xmlns="http://www.w3.org/2000/svg">
<path d="M1.50016 13.4167H4.8845V8.7628C4.8845 8.55319 4.95569 8.3775 5.09808 8.23572C5.23986 8.09333 5.41555 8.02214 5.62516 8.02214H8.37516C8.58477 8.02214 8.76077 8.09333 8.90316 8.23572C9.04494 8.3775 9.11583 8.55319 9.11583 8.7628V13.4167H12.5002V5.44905C12.5002 5.35494 12.4797 5.26939 12.4387 5.19239C12.3978 5.11539 12.3419 5.04816 12.271 4.99072L7.33566 1.27089C7.24155 1.189 7.12972 1.14805 7.00016 1.14805C6.87061 1.14805 6.75908 1.189 6.66558 1.27089L1.72933 4.99072C1.65905 5.04939 1.60313 5.11661 1.56158 5.19239C1.52002 5.26816 1.49955 5.35372 1.50016 5.44905V13.4167ZM0.583496 13.4167V5.44905C0.583496 5.21439 0.636052 4.99225 0.741163 4.78264C0.846274 4.57302 0.991107 4.40039 1.17566 4.26472L6.11191 0.526552C6.37041 0.329164 6.66558 0.230469 6.99741 0.230469C7.32925 0.230469 7.62625 0.329164 7.88841 0.526552L12.8247 4.2638C13.0098 4.39947 13.1547 4.57241 13.2592 4.78264C13.3643 4.99225 13.4168 5.21439 13.4168 5.44905V13.4167C13.4168 13.6624 13.3255 13.8766 13.1427 14.0593C12.96 14.242 12.7458 14.3334 12.5002 14.3334H8.93983C8.72961 14.3334 8.55361 14.2625 8.41183 14.1207C8.27005 13.9783 8.19916 13.8023 8.19916 13.5927V8.93972H5.80116V13.5927C5.80116 13.8029 5.73027 13.9789 5.5885 14.1207C5.44672 14.2625 5.27102 14.3334 5.06141 14.3334H1.50016C1.2545 14.3334 1.0403 14.242 0.857579 14.0593C0.674857 13.8766 0.583496 13.6624 0.583496 13.4167Z" fill="#E8E8E8"/>
</svg>
