<svg width="14" height="15" viewBox="0 0 14 15" fill="none" xmlns="http://www.w3.org/2000/svg">
<path d="M0.583496 13.4167V5.44905C0.583496 5.21439 0.636052 4.99225 0.741163 4.78264C0.846274 4.57302 0.991107 4.40039 1.17566 4.26472L6.11191 0.526552C6.37041 0.329164 6.66558 0.230469 6.99741 0.230469C7.32925 0.230469 7.62625 0.329164 7.88841 0.526552L12.8247 4.2638C13.0098 4.39947 13.1547 4.57241 13.2592 4.78264C13.3643 4.99225 13.4168 5.21439 13.4168 5.44905V13.4167C13.4168 13.6624 13.3255 13.8766 13.1427 14.0593C12.96 14.242 12.7458 14.3334 12.5002 14.3334H9.39816C9.18794 14.3334 9.01194 14.2625 8.87016 14.1207C8.72838 13.9783 8.6575 13.8023 8.6575 13.5927V9.22114C8.6575 9.01152 8.58661 8.83583 8.44483 8.69405C8.30244 8.55166 8.12644 8.48047 7.91683 8.48047H6.0835C5.87388 8.48047 5.69819 8.55166 5.55641 8.69405C5.41402 8.83583 5.34283 9.01152 5.34283 9.22114V13.5936C5.34283 13.8032 5.27194 13.9789 5.13016 14.1207C4.98838 14.2625 4.81269 14.3334 4.60308 14.3334H1.50016C1.2545 14.3334 1.0403 14.242 0.857579 14.0593C0.674857 13.8766 0.583496 13.6624 0.583496 13.4167Z" fill="white"/>
</svg>
