<svg width="24" height="25" viewBox="0 0 24 25" fill="none" xmlns="http://www.w3.org/2000/svg">
<g clip-path="url(#clip0_285_5167)">
<path d="M3.75 11.375C3.75 9.48534 4.50067 7.67307 5.83687 6.33687C7.17307 5.00067 8.98534 4.25 10.875 4.25C12.7647 4.25 14.5769 5.00067 15.9131 6.33687C17.2493 7.67307 18 9.48534 18 11.375C18 11.6734 18.1185 11.9595 18.3295 12.1705C18.5405 12.3815 18.8266 12.5 19.125 12.5C19.4234 12.5 19.7095 12.3815 19.9205 12.1705C20.1315 11.9595 20.25 11.6734 20.25 11.375C20.25 9.5208 19.7002 7.70824 18.67 6.16653C17.6399 4.62482 16.1757 3.42321 14.4627 2.71363C12.7496 2.00406 10.8646 1.81841 9.04603 2.18014C7.22746 2.54188 5.557 3.43476 4.24588 4.74588C2.93476 6.057 2.04188 7.72746 1.68014 9.54603C1.31841 11.3646 1.50406 13.2496 2.21363 14.9627C2.92321 16.6757 4.12482 18.1399 5.66653 19.17C7.20824 20.2002 9.0208 20.75 10.875 20.75H18V23.969C18 24.3035 18.405 24.4715 18.6405 24.2345L22.9845 19.8905C23.0194 19.8557 23.0471 19.8143 23.066 19.7687C23.0849 19.7232 23.0947 19.6743 23.0947 19.625C23.0947 19.5757 23.0849 19.5268 23.066 19.4813C23.0471 19.4357 23.0194 19.3943 22.9845 19.3595L18.6405 15.0155C18.5881 14.9629 18.5212 14.9271 18.4483 14.9126C18.3755 14.8981 18.3 14.9055 18.2314 14.9339C18.1628 14.9624 18.1042 15.0105 18.063 15.0723C18.0218 15.1341 17.9999 15.2067 18 15.281V18.5H10.875C8.98534 18.5 7.17307 17.7493 5.83687 16.4131C4.50067 15.0769 3.75 13.2647 3.75 11.375Z" fill="white"/>
</g>
<defs>
<clipPath id="clip0_285_5167">
<rect width="24" height="24" fill="white" transform="translate(0 0.5)"/>
</clipPath>
</defs>
</svg>
