<svg width="22" height="22" viewBox="0 0 22 22" fill="none" xmlns="http://www.w3.org/2000/svg">
<g clip-path="url(#clip0_285_5057)">
<path d="M22 0H0V22H22V0Z" fill="white"/>
<path fill-rule="evenodd" clip-rule="evenodd" d="M6.19587 6.16391C6.6714 6.55026 6.8498 6.52078 7.74279 6.4612L16.1613 5.9557C16.3398 5.9557 16.1914 5.77758 16.1318 5.74799L14.7337 4.73724C14.4658 4.52925 14.1089 4.29106 13.4248 4.35065L5.27316 4.9452C4.97587 4.97468 4.91649 5.12332 5.03488 5.24246L6.19587 6.16391ZM6.7013 8.12584V16.9836C6.7013 17.4596 6.93919 17.6377 7.47461 17.6083L16.7266 17.0729C17.2622 17.0435 17.3219 16.716 17.3219 16.3293V7.53102C17.3219 7.14493 17.1734 6.93673 16.8455 6.96645L7.17711 7.53102C6.82029 7.561 6.7013 7.73949 6.7013 8.12584ZM15.8348 8.60099C15.8941 8.86877 15.8348 9.13632 15.5665 9.16642L15.1207 9.25525V15.7946C14.7337 16.0026 14.3768 16.1215 14.0794 16.1215C13.6032 16.1215 13.4839 15.9728 13.1273 15.5272L10.2114 10.9496V15.3786L11.1341 15.5868C11.1341 15.5868 11.1341 16.1215 10.3897 16.1215L8.33743 16.2406C8.27782 16.1215 8.33743 15.8246 8.5456 15.7651L9.08114 15.6166V9.76071L8.33758 9.70112C8.27794 9.43334 8.42646 9.04722 8.84325 9.01727L11.0448 8.86886L14.0794 13.506V9.40386L13.3057 9.31507C13.2463 8.9877 13.4839 8.74999 13.7815 8.72052L15.8348 8.60099ZM4.58873 4.14269L13.0678 3.51826C14.109 3.42896 14.3769 3.48879 15.0313 3.96417L17.738 5.86652C18.1846 6.19365 18.3334 6.28271 18.3334 6.63932V17.0729C18.3334 17.7268 18.0952 18.1135 17.2624 18.1727L7.41569 18.7673C6.79051 18.7971 6.49298 18.708 6.16558 18.2916L4.17239 15.7056C3.81527 15.2295 3.66675 14.8734 3.66675 14.4567V5.18267C3.66675 4.64794 3.90503 4.20188 4.58873 4.14269Z" fill="black"/>
</g>
<rect x="0.5" y="0.5" width="21" height="21" rx="3.5" stroke="black" stroke-opacity="0.1"/>
<defs>
<clipPath id="clip0_285_5057">
<rect width="22" height="22" rx="4" fill="white"/>
</clipPath>
</defs>
</svg>
