<svg width="18" height="18" viewBox="0 0 18 18" fill="none" xmlns="http://www.w3.org/2000/svg">
<path d="M15.0982 10.2501H11.869C11.441 10.2496 11.0302 10.419 10.7268 10.7209C10.4235 11.0229 10.2522 11.4329 10.2507 11.8609V15.0901C10.2505 15.3027 10.2922 15.5132 10.3734 15.7097C10.4547 15.9061 10.5739 16.0846 10.7242 16.2349C10.8745 16.3852 11.053 16.5044 11.2494 16.5857C11.4459 16.6669 11.6564 16.7086 11.869 16.7084H15.0982C15.5261 16.7067 15.9358 16.5353 16.2376 16.232C16.5394 15.9286 16.7086 15.518 16.7082 15.0901V11.8609C16.7084 11.6494 16.6669 11.44 16.5861 11.2445C16.5052 11.0491 16.3866 10.8715 16.2371 10.722C16.0876 10.5724 15.91 10.4539 15.7146 10.373C15.5191 10.2922 15.3097 10.2507 15.0982 10.2509M6.13067 10.2501H2.90151C2.47367 10.2525 2.06418 10.4242 1.7625 10.7276C1.46083 11.0309 1.2915 11.4414 1.2915 11.8692V15.0984C1.29129 15.3099 1.33278 15.5194 1.41361 15.7148C1.49444 15.9102 1.61303 16.0878 1.76257 16.2373C1.91212 16.3869 2.08969 16.5055 2.28513 16.5863C2.48056 16.6671 2.69002 16.7086 2.90151 16.7084H6.13067C6.55857 16.7089 6.9692 16.5396 7.27255 16.2379C7.57591 15.9361 7.74724 15.5263 7.749 15.0984V11.8692C7.74922 11.6567 7.70751 11.4461 7.62626 11.2497C7.54501 11.0532 7.42581 10.8747 7.2755 10.7244C7.12518 10.5741 6.94668 10.4549 6.75024 10.3737C6.5538 10.2924 6.34326 10.2507 6.13067 10.2509M6.13067 1.29175H2.90151C2.69002 1.29153 2.48056 1.33302 2.28513 1.41386C2.08969 1.49469 1.91212 1.61327 1.76257 1.76282C1.61303 1.91236 1.49444 2.08994 1.41361 2.28537C1.33278 2.4808 1.29129 2.69026 1.2915 2.90175V6.13092C1.29106 6.55882 1.46028 6.96944 1.76207 7.2728C2.06386 7.57615 2.47361 7.74748 2.90151 7.74925H6.13067C6.34326 7.74947 6.5538 7.70776 6.75024 7.62651C6.94668 7.54526 7.12518 7.42606 7.2755 7.27574C7.42581 7.12542 7.54501 6.94693 7.62626 6.75048C7.70751 6.55404 7.74922 6.3435 7.749 6.13092V2.90175C7.74724 2.47385 7.57591 2.0641 7.27255 1.76231C6.9692 1.46052 6.55857 1.2913 6.13067 1.29175ZM15.0982 1.29175H11.869C11.4411 1.2913 11.0305 1.46052 10.7271 1.76231C10.4238 2.0641 10.2524 2.47385 10.2507 2.90175V6.13092C10.2509 6.56006 10.4215 6.97156 10.7249 7.27501C11.0284 7.57845 11.4399 7.74903 11.869 7.74925H15.0982C15.5261 7.74748 15.9358 7.57615 16.2376 7.2728C16.5394 6.96944 16.7086 6.55882 16.7082 6.13092V2.90175C16.7084 2.69026 16.6669 2.4808 16.5861 2.28537C16.5052 2.08994 16.3866 1.91236 16.2371 1.76282C16.0876 1.61327 15.91 1.49469 15.7146 1.41386C15.5191 1.33302 15.3097 1.29153 15.0982 1.29175Z" stroke="#E8E8E8" stroke-width="1.5" stroke-linecap="round" stroke-linejoin="round"/>
</svg>
