<svg width="22" height="23" viewBox="0 0 22 23" fill="none" xmlns="http://www.w3.org/2000/svg">
<g clip-path="url(#clip0_285_5069)">
<path d="M22 0.906006H0V22.906H22V0.906006Z" fill="white"/>
<path d="M7.02381 13.7231C7.02381 14.5223 6.37842 15.1682 5.5799 15.1682C4.78137 15.1682 4.13599 14.5223 4.13599 13.7231C4.13599 12.924 4.78137 12.2781 5.5799 12.2781H7.02381V13.7231Z" fill="#E01E5A"/>
<path d="M7.74585 13.7234C7.74585 12.9242 8.39123 12.2783 9.18976 12.2783C9.98829 12.2783 10.6337 12.9242 10.6337 13.7234V17.336C10.6337 18.1352 9.98829 18.7811 9.18976 18.7811C8.39123 18.7811 7.74585 18.1352 7.74585 17.336V13.7234Z" fill="#E01E5A"/>
<path d="M9.18976 7.92113C8.39123 7.92113 7.74585 7.27523 7.74585 6.47607C7.74585 5.6769 8.39123 5.03101 9.18976 5.03101C9.98829 5.03101 10.6337 5.6769 10.6337 6.47607V7.92113H9.18976Z" fill="#36C5F0"/>
<path d="M9.18963 8.65454C9.98815 8.65454 10.6335 9.30044 10.6335 10.0996C10.6335 10.8988 9.98815 11.5447 9.18963 11.5447H5.56891C4.77038 11.5447 4.125 10.8988 4.125 10.0996C4.125 9.30044 4.77038 8.65454 5.56891 8.65454H9.18963Z" fill="#36C5F0"/>
<path d="M14.9763 10.0996C14.9763 9.30044 15.6217 8.65454 16.4202 8.65454C17.2188 8.65454 17.8641 9.30044 17.8641 10.0996C17.8641 10.8988 17.2188 11.5447 16.4202 11.5447H14.9763V10.0996Z" fill="#2EB67D"/>
<path d="M14.2543 10.0997C14.2543 10.8988 13.6089 11.5447 12.8104 11.5447C12.0118 11.5447 11.3665 10.8988 11.3665 10.0997V6.47607C11.3665 5.6769 12.0118 5.03101 12.8104 5.03101C13.6089 5.03101 14.2543 5.6769 14.2543 6.47607V10.0997Z" fill="#2EB67D"/>
<path d="M12.8104 15.8909C13.6089 15.8909 14.2543 16.5368 14.2543 17.3359C14.2543 18.1351 13.6089 18.781 12.8104 18.781C12.0118 18.781 11.3665 18.1351 11.3665 17.3359V15.8909H12.8104Z" fill="#ECB22E"/>
<path d="M12.8104 15.1682C12.0118 15.1682 11.3665 14.5223 11.3665 13.7231C11.3665 12.924 12.0118 12.2781 12.8104 12.2781H16.4311C17.2296 12.2781 17.875 12.924 17.875 13.7231C17.875 14.5223 17.2296 15.1682 16.4311 15.1682H12.8104Z" fill="#ECB22E"/>
</g>
<rect x="0.5" y="1.40601" width="21" height="21" rx="3.5" stroke="black" stroke-opacity="0.1"/>
<defs>
<clipPath id="clip0_285_5069">
<rect y="0.906006" width="22" height="22" rx="4" fill="white"/>
</clipPath>
</defs>
</svg>
