<svg width="24" height="25" viewBox="0 0 24 25" fill="none" xmlns="http://www.w3.org/2000/svg">
<path d="M3.25 14.75L5.125 10.347M5.125 10.347H11.875M5.125 10.347L7.998 3.59899C8.03626 3.49675 8.10484 3.40862 8.19455 3.34641C8.28426 3.28419 8.39083 3.25085 8.5 3.25085C8.60917 3.25085 8.71574 3.28419 8.80545 3.34641C8.89516 3.40862 8.96374 3.49675 9.002 3.59899L11.875 10.347M11.875 10.347L12.45 11.696M13.336 21.186C13.7979 21.0816 14.2206 20.8482 14.555 20.513L20.009 15.063C20.2518 14.8304 20.4458 14.5518 20.5795 14.2433C20.7132 13.9348 20.784 13.6027 20.7877 13.2665C20.7914 12.9303 20.728 12.5967 20.6011 12.2853C20.4742 11.974 20.2864 11.6911 20.0488 11.4532C19.8111 11.2154 19.5284 11.0274 19.2171 10.9002C18.9059 10.7731 18.5724 10.7093 18.2362 10.7128C17.9 10.7162 17.5678 10.7867 17.2592 10.9202C16.9506 11.0536 16.6718 11.2474 16.439 11.49L10.986 16.942C10.651 17.278 10.417 17.702 10.312 18.164L9.776 20.518C9.73804 20.6841 9.74287 20.8572 9.79003 21.021C9.83719 21.1847 9.92514 21.3338 10.0456 21.4543C10.1662 21.5749 10.3153 21.6628 10.479 21.71C10.6428 21.7571 10.8159 21.762 10.982 21.724L13.336 21.186Z" stroke="white" stroke-width="3" stroke-linecap="round" stroke-linejoin="round"/>
</svg>
