<svg width="14" height="18" viewBox="0 0 14 18" fill="none" xmlns="http://www.w3.org/2000/svg">
<path d="M2.875 0.0625H4.91733C5.91925 0.0625 6.97525 0.42275 7.96708 0.96725C8.96625 1.51542 9.94617 2.27625 10.8069 3.13792C11.6677 3.99958 12.4267 4.97675 12.9739 5.97225C13.5157 6.9595 13.875 8.00817 13.875 9V15.1875C13.875 15.9168 13.5853 16.6163 13.0695 17.132C12.5538 17.6478 11.8543 17.9375 11.125 17.9375H2.875C2.14565 17.9375 1.44618 17.6478 0.930456 17.132C0.414731 16.6163 0.125 15.9168 0.125 15.1875V2.8125C0.125 2.08315 0.414731 1.38368 0.930456 0.867956C1.44618 0.352231 2.14565 0.0625 2.875 0.0625ZM9.83433 4.10958C9.17755 3.44749 8.44532 2.86478 7.65267 2.37342C7.67589 2.51642 7.6875 2.66278 7.6875 2.8125V4.875C7.6875 5.23967 7.83237 5.58941 8.09023 5.84727C8.34809 6.10513 8.69783 6.25 9.0625 6.25H11.125C11.2753 6.25 11.4223 6.26161 11.5659 6.28483C11.0756 5.49467 10.4944 4.76462 9.83433 4.10958ZM4.25 9.6875C4.06766 9.6875 3.8928 9.75993 3.76386 9.88886C3.63493 10.0178 3.5625 10.1927 3.5625 10.375C3.5625 10.5573 3.63493 10.7322 3.76386 10.8611C3.8928 10.9901 4.06766 11.0625 4.25 11.0625H7.91667C8.099 11.0625 8.27387 10.9901 8.4028 10.8611C8.53173 10.7322 8.60417 10.5573 8.60417 10.375C8.60417 10.1927 8.53173 10.0178 8.4028 9.88886C8.27387 9.75993 8.099 9.6875 7.91667 9.6875H4.25ZM4.25 12.4375C4.06766 12.4375 3.8928 12.5099 3.76386 12.6389C3.63493 12.7678 3.5625 12.9427 3.5625 13.125C3.5625 13.3073 3.63493 13.4822 3.76386 13.6111C3.8928 13.7401 4.06766 13.8125 4.25 13.8125H9.75C9.93234 13.8125 10.1072 13.7401 10.2361 13.6111C10.3651 13.4822 10.4375 13.3073 10.4375 13.125C10.4375 12.9427 10.3651 12.7678 10.2361 12.6389C10.1072 12.5099 9.93234 12.4375 9.75 12.4375H4.25Z" fill="white"/>
</svg>
