<svg width="15" height="18" viewBox="0 0 15 18" fill="none" xmlns="http://www.w3.org/2000/svg">
<path d="M5.68833 0.75H3.646C3.09899 0.75 2.57438 0.967298 2.18759 1.35409C1.80079 1.74089 1.5835 2.26549 1.5835 2.8125V15.1875C1.5835 15.7345 1.80079 16.2591 2.18759 16.6459C2.57438 17.0327 3.09899 17.25 3.646 17.25H11.896C12.443 17.25 12.9676 17.0327 13.3544 16.6459C13.7412 16.2591 13.9585 15.7345 13.9585 15.1875V9M5.68833 0.75C6.82775 0.75 7.771 1.67308 7.771 2.8125V4.875C7.771 5.42201 7.98829 5.94661 8.37509 6.33341C8.76188 6.7202 9.28649 6.9375 9.8335 6.9375H11.896C12.443 6.9375 12.9676 7.1548 13.3544 7.54159C13.7412 7.92839 13.9585 8.45299 13.9585 9M5.68833 0.75C9.07083 0.75 13.9585 5.66333 13.9585 9M5.25016 13.125H10.7502M5.25016 10.375H8.91683" stroke="#E8E8E8" stroke-width="1.5" stroke-linecap="round" stroke-linejoin="round"/>
</svg>
